<svg width="24" height="25" viewBox="0 0 24 25" fill="none" xmlns="http://www.w3.org/2000/svg">
<path d="M16.1617 13.6775C15.144 15.213 14.041 16.6903 12.858 18.1025C12.7282 18.2519 12.5614 18.3644 12.3742 18.4288V23.2625L16.923 21.6388L16.1617 13.6775ZM11.1405 18.0988C9.95618 16.6889 8.85314 15.2128 7.83675 13.6775L7.08675 21.6388L11.6242 23.2625V18.4288C11.4361 18.3645 11.2689 18.2505 11.1405 18.0988ZM17.6767 21.6763L22.3717 23.3525C22.4344 23.3767 22.5024 23.3835 22.5687 23.3724C22.6349 23.3613 22.697 23.3326 22.7483 23.2893C22.7997 23.246 22.8385 23.1896 22.8606 23.1262C22.8828 23.0628 22.8875 22.9946 22.8742 22.9288L21.3742 15.0538C21.3622 14.9931 21.3354 14.9364 21.2961 14.8886C21.2569 14.8409 21.2064 14.8035 21.1492 14.78L16.8517 12.9913L17.6767 21.6763ZM1.62675 23.3525L6.32175 21.6763L7.14675 12.9913L2.85675 14.78C2.79958 14.8035 2.74913 14.8409 2.70987 14.8886C2.67062 14.9364 2.64378 14.9931 2.63175 15.0538L1.13175 22.9288C1.11925 22.9937 1.12417 23.0609 1.14602 23.1234C1.16787 23.1858 1.20586 23.2414 1.25613 23.2844C1.30641 23.3275 1.36718 23.3564 1.43227 23.3684C1.49736 23.3804 1.56446 23.3749 1.62675 23.3525ZM12.2842 17.6188C12.5205 17.3413 17.9992 10.8313 17.9992 7.625C17.9992 6.0337 17.3671 4.50758 16.2419 3.38236C15.1167 2.25714 13.5905 1.625 11.9992 1.625C10.4079 1.625 8.88183 2.25714 7.75661 3.38236C6.63139 4.50758 5.99925 6.0337 5.99925 7.625C5.99925 10.8313 11.478 17.3413 11.7142 17.6188C11.7495 17.6599 11.7932 17.693 11.8424 17.7156C11.8916 17.7383 11.9451 17.75 11.9992 17.75C12.0534 17.75 12.1069 17.7383 12.1561 17.7156C12.2053 17.693 12.249 17.6599 12.2842 17.6188ZM9.37425 7.625C9.37425 7.10582 9.5282 6.59831 9.81664 6.16663C10.1051 5.73495 10.515 5.3985 10.9947 5.19982C11.4744 5.00114 12.0022 4.94915 12.5114 5.05044C13.0206 5.15173 13.4883 5.40173 13.8554 5.76884C14.2225 6.13596 14.4725 6.60369 14.5738 7.11289C14.6751 7.62209 14.6231 8.14989 14.4244 8.62954C14.2258 9.1092 13.8893 9.51917 13.4576 9.80761C13.0259 10.096 12.5184 10.25 11.9992 10.25C11.3031 10.25 10.6354 9.97344 10.1431 9.48116C9.65081 8.98887 9.37425 8.32119 9.37425 7.625Z" fill="#203F30"/>
</svg>
