<svg width="20" height="20" viewBox="0 0 20 20" fill="none" xmlns="http://www.w3.org/2000/svg">
<path d="M14.7447 9.26961C14.6586 9.22832 14.5711 9.18858 14.4824 9.15053C14.3281 6.30606 12.7738 4.6776 10.164 4.66094C10.1522 4.66086 10.1404 4.66086 10.1286 4.66086C8.56759 4.66086 7.26933 5.32718 6.47026 6.53966L7.90557 7.52425C8.50251 6.61857 9.43934 6.4255 10.1293 6.4255C10.1372 6.4255 10.1453 6.4255 10.1531 6.42557C11.0124 6.43105 11.6609 6.6809 12.0806 7.16813C12.386 7.52284 12.5903 8.01302 12.6914 8.63165C11.9295 8.50216 11.1056 8.46234 10.2247 8.51284C7.74346 8.65577 6.14829 10.1029 6.25543 12.1137C6.30979 13.1337 6.81794 14.0112 7.6862 14.5845C8.4203 15.0691 9.36578 15.306 10.3484 15.2524C11.6461 15.1813 12.6641 14.6861 13.3743 13.7808C13.9137 13.0933 14.2548 12.2024 14.4055 11.0798C15.0239 11.453 15.4822 11.9442 15.7354 12.5346C16.1658 13.5382 16.1909 15.1875 14.8452 16.5321C13.6661 17.71 12.2488 18.2196 10.1069 18.2353C7.73091 18.2177 5.93399 17.4557 4.76569 15.9705C3.67167 14.5798 3.10627 12.571 3.08518 10C3.10627 7.42894 3.67167 5.42017 4.76569 4.02945C5.93399 2.54426 7.73087 1.78229 10.1068 1.76464C12.5001 1.78243 14.3283 2.54806 15.5413 4.04042C16.1361 4.77225 16.5845 5.69258 16.8802 6.76566L18.5621 6.3169C18.2038 4.99606 17.6399 3.85789 16.8727 2.91396C15.3176 1.0007 13.0432 0.0203279 10.1127 0H10.101C7.17647 0.0202573 4.92756 1.00435 3.41675 2.92493C2.07233 4.634 1.37884 7.01205 1.35554 9.99297L1.35547 10L1.35554 10.007C1.37884 12.9879 2.07233 15.366 3.41675 17.0751C4.92756 18.9956 7.17647 19.9798 10.101 20H10.1127C12.7128 19.982 14.5455 19.3013 16.0553 17.7928C18.0306 15.8194 17.9711 13.3457 17.3201 11.8272C16.853 10.7382 15.9624 9.85377 14.7447 9.26961ZM10.2555 13.4903C9.16802 13.5516 8.03822 13.0634 7.98251 12.0179C7.94122 11.2427 8.5342 10.3777 10.3223 10.2747C10.527 10.2629 10.728 10.2571 10.9254 10.2571C11.5748 10.2571 12.1824 10.3202 12.7348 10.4409C12.5288 13.0141 11.3203 13.4319 10.2555 13.4903Z" fill="#0A0915"/>
</svg>
